<?xml version="1.0" encoding="UTF-8"?>
<svg id="Layer_1" xmlns="http://www.w3.org/2000/svg" version="1.1" viewBox="0 0 600 211.3">
  <!-- Generator: Adobe Illustrator 30.4.0, SVG Export Plug-In . SVG Version: 2.1.4 Build 226)  -->
  <defs>
    <style>
      .st0 {
        fill: none;
        stroke: #000;
        stroke-miterlimit: 10;
      }

      .st1, .st2 {
        display: none;
      }

      .st1, .st3 {
        fill: #fdfdfd;
      }

      .st4 {
        fill: #353333;
      }

      .st5 {
        fill: #df402a;
      }

      .st6 {
        fill: #020202;
      }

      .st7 {
        fill: #fff;
      }
    </style>
  </defs>
  <path class="st1" d="M-.73,359.1V-40.9h600v400H-.73ZM470.02,189.63l3.98,10.56,13.65-2.7c.98-.19,1.78-1.01,2.21-1.45.64-.64.69-2.28.01-2.81-2.94,3.58-7.14,4.93-11.78,5.01l-26.32-78.18c3.85-1.9,7.35-3.14,12.06-4.21l12.06,37.33.4-.6c-.06-.98-.5-1.99.23-4.12,4.62,3.15,9.33,3.08,14.42,1.33l19.79-6.78c.2-.07.41-.22.54-.42-.1-.1-.12-.31,0-.5,1.12,0,2.23-.14,3.01-.98l9.98-3.06c1.42-.44,2.84-1.06,4.02-1.95,5.04-.22,8.52-4.7,13.35-2.7l.68-.84-4.92-3.54c2.1-1.82,4.21-2.07,6.36-1.88l.88-.73c-2.47-.82-6.32-.78-8.12,2.02-.49.76.99,2.84,1.29,3.08l-10.52,4.59c-1.12,0-2.2.18-3,.99-4.03-.21-7.71,1.82-10.99,4.04-1.11-.5-2.29.61-3.11.77-7.61,1.46-10.9,4.5-15.91,5.02l-.17-96.7c-.02-6.61-6.66-10.42-13.03-10.42H87.47c-7.05,0-12.64,4.83-12.64,11.78l-.09,126.23c0,6.5,4.57,12.29,11.75,12.29l383.53-.47ZM544.97,126.69l-.73.92,1.52.48.49-.5-1.28-.91ZM546.67,129.04l.54-.54c-.54-.8-1.34,0-.54.54ZM460.27,131.1c-1.34.9-1.56,2.44,0,4,.42.69.89,1.81,1.65,1.98,1.37.3,2.08.02,2.35-1.98.65-1.1,1.84-2.43,0-4-.86-1.25-2.59-1.59-4,0ZM548.33,130.69c.54.8,1.34,0,.54-.54l-.54.54ZM549.67,132.04l.54-.54c-.54-.8-1.34,0-.54.54ZM551.37,141.13c-.06,2.94-.53,7.1-4.08,7.01l-2.09-.13c.52-4.29,2.43-9.3-.24-12.97l-1.03.8c1.23,1.89,2.47,7.61-.18,8.41l-18.55,5.56,13.63-2.3c2.85-.48,4.75-.33,6.17,2.08.14.24.65.44.92.42.5-.03,1.1-.53,1.36-.87,3.98-.42,4.72-4.57,5.34-7.93.54-2.96.84-6.73-2.29-9.4.32,3.89,1.1,6.29,1.03,9.33ZM542.79,133.06l-.83.68.73.49.66-.69-.57-.49ZM543.82,134l-.69.67.5.7.69-.8-.5-.57ZM533.27,140.6c.78-1.67,2.19-2.51,4.09-2.96-1.96-1.33-3.06-.31-4.13.87-.61.68-1.49,1.59-.47,2.59.23-.11.41-.28.51-.5ZM534.29,142.58c.29.7,1.68,2.09,3.11,1.42,1.79-.84,2.57-4.43,1.23-5.91-.29,1.41-.26,3.27-1.05,3.83s-2.12.34-2.8.16l-.49.51ZM523.28,140.77c-1.29,1.13-1.7,2.93-.25,4.22.29.26.87.56,1.05.97.45,1.01.83,1.28,1.73,1.23s1.47-.59,1.58-1.92c.04-.46,1.09-.94,1.44-1.23.56-.46.71-1.9-.58-1.97l-.78-.85c-1.25-1.37-2.84-1.66-4.2-.46ZM533.77,141.1l-.51.51.51.48.49-.49-.5-.5ZM510.38,146.15c-.39.32-1.32.58-1.03,1.33.33.88,1.17,1.49,1.94,1.63.35,1.13,1.44,1.26,2.52,1.08,1.18-.2,1.6-.87,1.51-2.07.33-.36.89-.86.96-1.52.1-.87-.7-1.13-.92-1.57-.6-1.18-2.03-2.07-3.58-1.89-.21.1-.43.25-.52.46l-.87,2.55ZM524.13,150.47c-6.53-.53-11.05,1.82-16.03,3.28,6.1.63,11.18-1.39,16.03-3.28ZM487.77,188.87c3.28-2.22,6.33-4.98,6.35-8.82l.06-22.02c4.44-.9,8.95-1.41,13.24-3.49-3.78-1.43-6.95.96-10.33,1.31-7.22.74-13.07,4.27-15.4,10.81l-4.88-13.56c-.22.17-.42.49-1.17.75l12.13,35.01ZM480.26,180.61c-1.43-.98-2.61-.66-3.3.75-.63,1.27-1.43,2.57.09,3.9-.01-2.56,1.04-3.82,2.72-4.19l.49-.46ZM480.76,181.12l-.52.51c.7.79,1.32,2.06,1.14,3.02-.21,1.13-1.48,1.66-3.23,1.8,1.79,1.58,3.56.26,4.62-1.36,1.21-1.85.26-3.8-2.02-3.97ZM489.36,191.27c.23-1.33-1.42-1.33-1.19,0-.6,2.03,1.79,2.03,1.19,0ZM39.8,231.59c1.82,2.37,2.58,3.69,6.27,2.95l-9.01-17.79c-1.85-.11-4.58-.47-5.63.4l-9.22,17.04c3.38,2.07,4.46-.95,6.62-2.54s8.76-1.38,10.97-.07ZM80.36,233.61c-2.18-2.44-3.06-3.45-3.76-5.53,2.97-1.7,3.97-4.2,3.25-7.13-1.55-6.28-11.6-3.42-21.05-4.35l.19,17.92c2.04.09,3.51.32,4.12-.23s-.38-3.71.17-4.38c1.93-2.35,7.77-2.11,9.56.48,1.17,1.69,1.59,3.44,3.44,3.99,1.06.31,3.03.85,4.09-.77ZM107.17,234.31c5.16-.11,7.88-5.56,7.44-9.43-.54-4.75-4.21-7.86-9.16-7.96l-13.68-.28.03,18.01,15.36-.34ZM136.14,216.78l-.44,12.84c-2.83,2.78-10.24,3.27-11.82-.69s-.17-7.99-.53-12.1l-4.62-.06.45,12.64c.16,4.56,5.87,5.66,10.09,5.67,4.13,0,10.52-.57,10.65-5.11l.38-13.13-4.17-.05ZM149.72,225.58c-.02-3.66,3.23-5.27,5.22-5.62,6.82-1.19,10.05,5.57,13.32,1.06-3.97-4.75-11.91-5.79-17.43-3.44-3.77,1.61-5.56,4.59-5.53,7.99s1.73,6.44,5.41,8.09c5.42,2.44,12.28,1.48,16.91-2.1.75-.58-.02-2.54-1.45-2.76-3.42-.51-5.06,3.93-11.29,2.51-1.92-.44-5.14-1.98-5.16-5.74ZM181.73,234.12l.42-13.87,8.55-.07c-.22-1.13-.18-2.17.04-3.5l-21.41.04.09,3.35,8.05.14.23,14.15c.91.57,3.65.58,4.04-.24ZM220.4,234.28c2.26-1.25-3.53-4.22-.04-9.13l-8.65,2.43c2.85-3.47,5.81-5.98,3.25-9.08-2.01-2.44-4.93-2.03-7.13-1.37-3.17.95-2.3,4.14-3.8,6.65-1.21,2.04-5.05,2.66-4.47,5.81.37,2,1.54,4.11,4.22,4.8,3.69.95,6.79-.22,10.6-1.09,1.32-.16,4.1,2.04,6.02.98ZM255.81,217.03l-4.06,11.66-3.32-11.86-5.65-.06-3.89,11.89-3.62-11.68c-1.61-.39-3.31-.53-4.84-.07l5.99,17.11c.83.96,3.84.84,5.23.35l3.96-11.88,3.4,11.86c1.93.34,3.57.35,5.53,0l5.73-17.62c-1.49-.04-3.52-.28-4.45.29ZM268.01,216.72l-4.5.04.16,17.82,4.5-.04-.16-17.82ZM295,234.34l-.05-17.6-4.29-.1-.51,12.22-11.68-11.85c-1.29-.74-3.87-.22-4.99-.18l.02,17.7h4.41s.3-12,.3-12l10.61,11.09c1.47,1.54,4.53,1.12,6.18.72ZM314.58,234.57c5.58-.11,8.63-4.61,8.54-8.98-.1-4.78-3.49-8.54-8.7-8.62l-13.91-.22.18,18.08,13.88-.27ZM346.09,233.46c3.91-1.9,5.18-5.29,4.93-8.76-.54-7.51-11.54-10.68-19.04-6.89-3.63,1.83-5.22,5.07-4.87,8.76.7,7.41,11.03,10.75,18.97,6.89ZM378.61,216.94l-3.86,11.75-3.3-11.8c-1.86-.3-3.55-.31-5.68-.03l-3.92,11.71-3.43-11.68h-4.86s5.93,17.6,5.93,17.6l5.22-.1,3.95-11.82,3.39,11.83c1.88.29,3.52.26,5.54-.02l5.86-17.56c-1.45-.12-2.92-.23-4.84.13ZM397.74,225.57c-.01-3.64,3.2-5.27,5.2-5.62,6.97-1.24,9.94,5.78,13.31,1.11-3.97-4.76-11.9-5.79-17.44-3.46-3.44,1.44-5.24,4.21-5.43,7.09-.2,3.14.6,6.01,3.45,7.88,5.73,3.76,13.29,3.25,18.88-1.12.69-.54-.21-2.44-1.58-2.61-3.7-.47-4.94,3.95-11.28,2.48-1.89-.44-5.11-1.93-5.12-5.74ZM481.56,231.63c1.25.57,1.64,2.89,2.56,2.89s2.54.66,3.65-.37l-9.09-17.28c-2.08-.31-3.73-.35-5.68.02l-9.27,17.34c3.75,2.15,4.73-1.4,6.76-2.61,2.84-1.7,8.55-1.14,11.08,0ZM511.97,234.35l-.04-17.6-4.34.09-.37,12.01-11.73-11.87c-1.1-.68-3.4-.25-4.87-.19l-.03,17.67,4.26.04.46-11.86,11.3,11.92,5.37-.22ZM521.82,216.56h-4.49s0,18.28,0,18.28h4.49s0-18.28,0-18.28ZM531.4,234.41c.14-4.51-.57-7.95.47-11.92l11.38,11.6c1.05,1.07,3.88.5,5.42.35l.05-17.7c-1.66-.08-2.93-.23-4.47.36-.26,4.18.67,7.82-.61,11.69l-10.91-11.17c-1.18-1.21-3.75-1.05-5.59-.59l-.11,17.43,4.36-.02ZM572.06,228.95c-3.46,3.02-7.46,3.13-11.05,1.56-2.46-1.08-3.62-3.45-3.23-5.87.28-1.77,1.74-3.44,3.95-4.19,6.72-2.3,11.71,4.44,13.15-.81-3.9-3.74-10.6-3.99-15.25-2.28-3.76,1.38-6.05,4.17-6.27,7.31-.26,3.62,1.2,6.83,4.75,8.71,4.78,2.52,11.15,2.3,15.72-.61,2.98-1.9,4.38-4.89,3.89-8.28l-13.15-.04c-.28,1.16-.3,2.09.09,3.61,2.5-.08,4.83-.52,7.43.91ZM48.8,216.79l-.05,17.72h4.53s.05-17.71.05-17.71h-4.53ZM438.61,231.02l-13.37.08-.08-13.99-4.36-.21v17.7s17.87,0,17.87,0c.42-1.4.32-2.65-.05-3.57ZM455.22,227.07c.71,0,1.56-.55,1.55-.89l-.05-2.12-9.84-.52c-.72-.04-.93-3-.28-3.25l14.34-.35c.69-.48.33-3.05-.44-3.05h-18.49s.05,17.53.05,17.53l19.09.12c.78,0,1.37-2.13.63-3.31l-15.32-.12-.03-3.98,8.8-.06Z"/>
  <path class="st1" d="M515.35,145.02l-.03,3.09c-1.25.74-2.64,1.17-4.04,1l-.91-2.96c.58-.49,1.73-1.78,2.4-1.62l2.58.49Z"/>
  <rect class="st1" x="460.27" y="131.1" width="4" height="4"/>
  <polygon class="st1" points="527.48 141.23 527.27 142.1 527.39 145.28 527.27 145.1 524.27 145.1 523.03 144.99 523.28 140.77 527.48 141.23"/>
  <g class="st2">
    <path class="st4" d="M255.81,217.03c.93-.57,2.96-.33,4.45-.29l-5.73,17.62c-1.96.34-3.6.33-5.53,0l-3.4-11.86-3.96,11.88c-1.39.49-4.4.61-5.23-.35l-5.99-17.11c1.53-.47,3.24-.32,4.84.07l3.62,11.68,3.89-11.89,5.65.06,3.32,11.86,4.06-11.66Z"/>
    <path class="st4" d="M378.61,216.94c1.93-.37,3.39-.25,4.84-.13l-5.86,17.56c-2.03.28-3.66.31-5.54.02l-3.39-11.83-3.95,11.82-5.22.1-5.93-17.61h4.86s3.43,11.69,3.43,11.69l3.92-11.71c2.13-.28,3.81-.27,5.68.03l3.3,11.8,3.86-11.75Z"/>
    <path class="st4" d="M572.06,228.95c-2.6-1.42-4.93-.98-7.43-.91-.38-1.51-.36-2.45-.09-3.61l13.15.04c.49,3.39-.91,6.38-3.89,8.28-4.56,2.91-10.94,3.13-15.72.61-3.55-1.87-5-5.09-4.75-8.71.22-3.13,2.51-5.93,6.27-7.31,4.66-1.71,11.35-1.46,15.25,2.28-1.44,5.25-6.43-1.48-13.15.81-2.21.76-3.66,2.42-3.95,4.19-.39,2.41.77,4.79,3.23,5.87,3.59,1.57,7.6,1.46,11.05-1.56Z"/>
    <path class="st4" d="M511.97,234.35l-5.37.22-11.3-11.92-.46,11.86-4.26-.04.03-17.67c1.47-.07,3.77-.49,4.87.19l11.73,11.87.37-12.01,4.34-.09.04,17.6Z"/>
    <path class="st4" d="M314.58,234.57l-13.88.27-.18-18.08,13.91.22c5.21.08,8.6,3.84,8.7,8.62.09,4.36-2.96,8.87-8.54,8.98ZM315.17,230.49c2.71-.98,3.66-3.81,3.33-5.81s-1.98-4.21-4.54-4.27l-8.83-.19c-.59,3.67-.62,7.05,0,10.75,3.47.16,6.77.69,10.04-.5Z"/>
    <path class="st4" d="M295,234.34c-1.65.4-4.7.82-6.18-.72l-10.61-11.09-.3,11.99h-4.41s-.02-17.69-.02-17.69c1.11-.04,3.7-.57,4.99.18l11.68,11.85.51-12.22,4.29.1.05,17.6Z"/>
    <path class="st4" d="M107.17,234.31l-15.36.34-.03-18.01,13.68.28c4.95.1,8.61,3.21,9.16,7.96.44,3.87-2.28,9.32-7.44,9.43ZM105.17,230.97c2.98-.02,4.79-2.85,4.75-5.24-.04-2.68-1.74-5.34-4.79-5.38l-8.86-.12.03,10.79,8.87-.05Z"/>
    <path class="st4" d="M80.36,233.61c-1.06,1.61-3.03,1.08-4.09.77-1.85-.55-2.28-2.3-3.44-3.99-1.79-2.6-7.63-2.83-9.56-.48-.55.67.45,3.84-.17,4.38s-2.08.32-4.12.23l-.19-17.92c9.45.92,19.5-1.93,21.05,4.35.73,2.93-.28,5.44-3.25,7.13.7,2.08,1.58,3.09,3.76,5.53ZM74.21,224.51c1.47-.04,1.77-2.25,1.4-2.86-1.34-2.2-6.58-1.54-12.27-1.36l.04,4.52,10.83-.29Z"/>
    <path class="st4" d="M220.4,234.28c-1.92,1.06-4.69-1.14-6.02-.98-3.81.87-6.91,2.04-10.6,1.09-2.69-.69-3.86-2.8-4.22-4.8-.58-3.15,3.26-3.78,4.47-5.81,1.5-2.51.62-5.69,3.8-6.65,2.2-.66,5.12-1.06,7.13,1.37,2.56,3.1-.4,5.61-3.25,9.08l8.65-2.43c-3.49,4.9,2.3,7.88.04,9.13ZM211.44,221.23c-.2-1.58-2.14-1.58-2.34,0-.32,2.54,2.66,2.54,2.34,0ZM210.15,230.51c-.25-2.44-2.4-2.66-3.51-2.91-1.35-.3-3.62.64-2.68,2.54.87,1.77,5.78,1.73,6.19.37Z"/>
    <path class="st4" d="M531.4,234.41l-4.36.02.11-17.43c1.83-.46,4.41-.61,5.59.59l10.91,11.17c1.28-3.87.35-7.51.61-11.69,1.54-.59,2.8-.44,4.47-.36l-.05,17.7c-1.55.15-4.38.72-5.42-.35l-11.38-11.6c-1.04,3.97-.34,7.41-.47,11.92Z"/>
    <path class="st4" d="M346.09,233.46c-7.95,3.86-18.27.52-18.97-6.89-.35-3.7,1.24-6.93,4.87-8.76,7.49-3.78,18.5-.61,19.04,6.89.25,3.47-1.02,6.86-4.93,8.76ZM345.91,223.12c-1.95-3.4-5.45-3.67-8.58-3.23-3.88.54-6.23,3.26-5.75,6.52s3.16,5.03,6.68,5.2c2.72.13,5.28-.44,6.91-2.15,1.26-1.32,2.05-4.06.74-6.34Z"/>
    <path class="st4" d="M397.74,225.57c.01,3.81,3.23,5.3,5.12,5.74,6.33,1.48,7.57-2.95,11.28-2.48,1.37.17,2.26,2.08,1.58,2.61-5.59,4.37-13.15,4.89-18.88,1.12-2.85-1.87-3.65-4.75-3.45-7.88.19-2.88,1.99-5.65,5.43-7.09,5.55-2.33,13.47-1.3,17.44,3.46-3.37,4.67-6.35-2.35-13.31-1.11-2,.36-5.21,1.98-5.2,5.62Z"/>
    <path class="st4" d="M149.72,225.58c.02,3.75,3.23,5.29,5.16,5.74,6.23,1.43,7.87-3.02,11.29-2.51,1.43.21,2.2,2.17,1.45,2.76-4.63,3.58-11.49,4.54-16.91,2.1-3.68-1.65-5.38-4.52-5.41-8.09s1.76-6.38,5.53-7.99c5.52-2.36,13.46-1.31,17.43,3.44-3.27,4.51-6.5-2.25-13.32-1.06-1.99.35-5.24,1.96-5.22,5.62Z"/>
    <path class="st4" d="M39.8,231.59c-2.22-1.31-8.77-1.56-10.97.07s-3.24,4.62-6.62,2.54l9.22-17.04c1.05-.87,3.78-.51,5.63-.4l9.01,17.79c-3.69.74-4.45-.58-6.27-2.95ZM37.72,227.08l-3.52-6.65-3.55,6.7c3.06.41,4.25.4,7.06-.06Z"/>
    <path class="st4" d="M481.56,231.63c-2.53-1.15-8.23-1.71-11.08,0-2.03,1.21-3.01,4.77-6.76,2.61l9.27-17.34c1.95-.37,3.61-.33,5.68-.02l9.09,17.28c-1.11,1.03-2.72.37-3.65.37s-1.31-2.32-2.56-2.89ZM479.16,227.11c-1.09-3.28-2-4.77-3.45-6.5l-3.55,6.45c2.77.42,4.53.34,7.01.05Z"/>
    <path class="st4" d="M455.22,227.07l-8.8.06.03,3.98,15.32.12c.74,1.19.15,3.32-.63,3.31l-19.09-.12-.05-17.53h18.49c.77,0,1.13,2.57.44,3.05l-14.34.35c-.66.26-.44,3.22.28,3.25l9.84.52.05,2.12c0,.34-.84.89-1.55.89Z"/>
    <path class="st4" d="M136.14,216.78l4.17.05-.38,13.13c-.13,4.54-6.52,5.12-10.65,5.11-4.22,0-9.93-1.11-10.09-5.67l-.45-12.64,4.62.06c.36,4.1-.97,8.34.53,12.1,1.57,3.96,8.99,3.47,11.82.69l.44-12.84Z"/>
    <path class="st4" d="M181.73,234.12c-.39.82-3.13.81-4.04.24l-.23-14.15-8.05-.14-.09-3.35,21.41-.04c-.22,1.34-.26,2.38-.04,3.5l-8.55.07-.42,13.87Z"/>
    <path class="st4" d="M438.61,231.02c.37.93.47,2.18.05,3.57h-17.86s0-17.7,0-17.7l4.36.21.08,13.99,13.37-.08Z"/>
    <rect class="st4" x="263.59" y="216.74" width="4.5" height="17.82" transform="translate(-1.99 2.37) rotate(-.51)"/>
    <rect class="st4" x="517.33" y="216.57" width="4.49" height="18.28"/>
    <rect class="st4" x="42.17" y="223.4" width="17.72" height="4.53" transform="translate(-174.76 276.12) rotate(-89.85)"/>
    <path class="st3" d="M315.17,230.49c-3.27,1.19-6.58.66-10.04.5-.61-3.7-.58-7.08,0-10.75l8.83.19c2.56.05,4.21,2.28,4.54,4.27s-.62,4.83-3.33,5.81Z"/>
    <path class="st3" d="M105.17,230.97l-8.87.05-.03-10.79,8.86.12c3.06.04,4.75,2.7,4.79,5.38.04,2.39-1.78,5.23-4.75,5.24Z"/>
    <path class="st3" d="M74.21,224.51l-10.83.29-.04-4.52c5.68-.17,10.93-.83,12.27,1.36.37.61.07,2.82-1.4,2.86Z"/>
    <path class="st3" d="M210.15,230.51c-.41,1.36-5.32,1.4-6.19-.37-.93-1.9,1.34-2.84,2.68-2.54,1.11.25,3.25.47,3.51,2.91Z"/>
    <path class="st3" d="M211.44,221.23c.32,2.54-2.66,2.54-2.34,0,.2-1.58,2.14-1.58,2.34,0Z"/>
    <path class="st3" d="M345.91,223.12c1.31,2.28.52,5.02-.74,6.34-1.63,1.71-4.19,2.28-6.91,2.15-3.51-.17-6.2-2.02-6.68-5.2s1.86-5.97,5.75-6.52c3.13-.44,6.64-.17,8.58,3.23Z"/>
    <path class="st3" d="M37.72,227.08c-2.82.46-4,.46-7.06.06l3.55-6.7,3.52,6.65Z"/>
    <path class="st3" d="M479.16,227.11c-2.48.29-4.24.37-7.01-.05l3.55-6.45c1.46,1.72,2.36,3.21,3.45,6.5Z"/>
  </g>
  <g>
    <path class="st5" d="M494.25,146.91c-2.09.22-3.71,1.35-6.11,1.91-5.09,1.18-11.92.23-13.66-4.88l-6.63-19.37-2.94-10.81c-6.75,2.3-13.86,4.47-18.91,9.26-10.35,3.02-24.76,4.34-26.58-3.58-.9-3.91.61-7.99,4.71-9.52,8.14-3.03,16.91-2.27,24.76,1.4l16.76-38.41c-7.85-6.93-17.77-9.28-27.94-10.35-22.84-2.39-43.18,3.26-53.62,24.36-4.53,9.16-5.69,18.9-6.2,29.21-.65,13.03.71,25.76,7.31,37.05,15.07,25.78,52.01,26.85,77.17,13.93l7.66,22.51-383.53.47c-7.17,0-11.75-5.79-11.75-12.29l.09-126.23c0-6.95,5.59-11.79,12.64-11.79h393.58c6.37,0,13.01,3.82,13.03,10.42l.17,96.7ZM178.3,156.17l4.06,17.94,39.18-.03-31.88-111.21-55.4.13-31.69,111.05,39.7.05c2.01-6.33,3.41-12.21,5.79-18.12l30.24.18ZM332.63,63.07l-11.71,33.8-9.94-33.8-27.77.04-10.58,33.45-10.51-33.39-40.93.02,34.31,110.87,28.88.05,11.89-42.57,14.82,42.58,29.99-.05,29.52-111.04-37.97.05Z"/>
    <path class="st5" d="M494.19,158.03l-.06,22.02c-.02,3.84-3.07,6.6-6.35,8.82l-3.86-15.43c-1.25-4.13-1.3-7.77,1.74-11.22,2.02-2.29,5.05-3.49,8.54-4.19Z"/>
    <g>
      <g>
        <path class="st7" d="M536.27,137.51l2.51.57c-.2,1.31-.26,2.8-.95,3.28-.76.53-2.12.34-2.8.15l-.52-.47-.5-.5-.5-.49c.58-1.25,1.52-2.04,2.76-2.54Z"/>
        <path class="st6" d="M487.89,187.8c.51.33,1.95,2.75,1.76,3.8.13.43.09.61-.04.61-.5,0-2.35-2.56-1.88-4.17-.04-.24,0-.32.1-.27l.19.54-.13-.51Z"/>
        <path class="st7" d="M483.02,184.53c.57-.88.66-1.77.36-2.49l2.2-.76,2.25,6.49c-.1-.05-.14.03-.1.27-.47,1.61,1.38,4.17,1.88,4.17l.5.47c-2.93,3.59-7.13,4.93-11.78,5.01l-4.43-13.16,2.63-.88c.12.35.36.7.76,1.05l1.11,1.19c1.79,1.58,3.57.26,4.62-1.36Z"/>
        <path class="st6" d="M487.89,187.8l.13.51-.19-.54s.04,0,.06.03Z"/>
        <path class="st6" d="M477.06,152.55l4.88,13.56c2.33-6.55,8.19-10.08,15.41-10.82,3.11-.31,6.06-2.39,9.47-1.56.28.06.56.15.85.26-4.29,2.07-8.8,2.59-13.24,3.48-3.48.71-6.52,1.9-8.54,4.2-3.03,3.44-2.99,7.09-1.74,11.22l3.74,14.91s-.04-.04-.06-.03l-2.25-6.49-9.69-27.97c.1-.16-.06-.49.24-.68l-.14-.43.54-.17c.24.14.45.37.53.52Z"/>
        <path class="st6" d="M525.44,149.31c.29-.02.59-.03.88-.03-4.84,1.89-13.36,4.9-19.46,4.27,2.15-.63,4.78-1.5,7.64-2.29,3.48-.97,7.28-1.81,10.94-1.95Z"/>
        <path class="st6" d="M548.5,129.97l.4.38c-.09-.06-.18-.14-.28-.25-.04-.04-.08-.09-.12-.13Z"/>
        <path class="st7" d="M545.45,147.45c.52-4.29,2.42-9.29-.25-12.97-.24-.03-.44-.24-.64-.47l-.5-.57-.46-.44-.57-.49-.49-.5-4.92-3.54c2.1-1.82,4.22-2.07,6.36-1.88l.51.47,1.52.48,2.47,2.4.02.03s.08.09.12.13l-.05.04c.08.12.17.2.26.26h.01s.81.82.81.82c.05.09.14.18.26.26l.69-.06c.32,3.79,1.08,6.17,1.01,9.15-.06,2.95-.53,7.11-4.08,7.01l-2.08-.13Z"/>
        <path class="st6" d="M478.33,197.69c4.65-.08,8.85-1.42,11.78-5.01.69.54.63,2.17-.01,2.82-.43.43-1.23,1.25-2.21,1.44l-13.64,2.7-3.99-10.57-7.66-22.5-14.17-41.8c-.42-1.23-1.28-1.92-2.19-2.3,5.05-4.79,12.16-6.96,18.91-9.26l2.93,10.81,6.64,19.37c1.74,5.1,8.57,6.06,13.66,4.88,2.4-.56,4.02-1.69,6.11-1.91,5.01-.53,8.3-3.56,15.91-5.02l1.11.2c-.11.18-.09.39.01.5l.49.54c1.55-.19,2.99.71,3.59,1.88l-2.58-.49c-.67-.16-1.82,1.13-2.4,1.62l.87-2.55-.51-.58-19.79,6.78c-5.1,1.75-9.8,1.82-14.43-1.33-.72,2.13-.28,3.14-.23,4.12l-.54.17-11.91-36.9c-4.71,1.07-8.22,2.31-12.07,4.21l21.89,65.02,4.43,13.16Z"/>
        <path class="st7" d="M460.51,134.54c.42.69.89,1.81,1.65,1.98,1.36.3,2.08.02,2.35-1.98.65-1.1,1.84-2.43,0-4-.86-1.25-2.59-1.59-4,0-1.34.9-1.56,2.44,0,4ZM477.2,180.8c-.46.93-1.02,1.88-.67,2.85l-2.63.88-21.89-65.02c3.85-1.9,7.36-3.14,12.07-4.21l11.91,36.9.14.43c-.3.19-.14.52-.24.68l9.69,27.97-2.2.76c-.34-.8-1.17-1.39-2.37-1.48-.14-.19-.31-.37-.51-.5-1.43-.98-2.6-.67-3.3.74Z"/>
        <path class="st6" d="M549.65,131.22l.26.26c-.12-.08-.21-.17-.26-.26Z"/>
        <path class="st7" d="M511.53,148.55c.34,1.13,1.44,1.26,2.52,1.08l.45,1.63c-2.86.79-5.49,1.66-7.64,2.29l-.04.18c-3.41-.83-6.36,1.25-9.47,1.56-7.22.74-13.08,4.27-15.41,10.82l-4.88-13.56c-.08-.15-.29-.38-.53-.52-.05-.98-.49-1.99.23-4.12,4.63,3.15,9.33,3.08,14.43,1.33l19.79-6.78.51.58-.87,2.55c-.39.32-1.32.58-1.03,1.34.33.88,1.17,1.49,1.94,1.62Z"/>
        <path class="st6" d="M541.86,132.85c-4.83-2-8.31,2.48-13.35,2.7h-1s10.53-4.6,10.53-4.6c-.3-.23-1.78-2.31-1.29-3.07,1.8-2.81,5.64-2.85,8.11-2.03l.35.28,1.29.91.81.77h0c.02.2.6,1.42,1.17,2.13l-2.47-2.4-1.52-.48-.51-.47c-2.14-.19-4.26.06-6.36,1.88l4.92,3.54.49.5.57.49.46.44.5.57c.2.23.4.44.64.47,2.67,3.68.77,8.68.25,12.97l-.21,1.57c-1.41-2.41-3.32-2.56-6.17-2.08l-13.59,2.3,1.55-.47,16.97-5.09c2.65-.79,1.41-6.51.18-8.4l-.31-.47-.5-.7c-.12-.17-.26-.31-.43-.43l-.74-.49c-.13-.09-.24-.21-.34-.34Z"/>
        <path d="M481.63,184.09c.18-.96-.44-2.23-1.14-3.02l-.48-.55c-1.68.36-2.74,1.63-2.72,4.18-.4-.35-.64-.7-.76-1.05-.35-.97.21-1.92.67-2.85.7-1.41,1.87-1.72,3.3-.74.2.13.37.31.51.5,1.2.09,2.03.68,2.37,1.48.3.72.21,1.61-.36,2.49-1.05,1.62-2.83,2.94-4.62,1.36,1.75-.14,3.02-.67,3.23-1.8Z"/>
        <path class="st6" d="M550.58,131.24c3.13,2.68,2.83,6.45,2.28,9.41l-1.25-.08c.07-2.98-.69-5.36-1.01-9.15-.01-.06-.01-.12-.02-.18Z"/>
        <path class="st6" d="M551.61,140.57l1.25.08c-.62,3.36-1.35,7.5-5.33,7.92v-.99c3.55.1,4.02-4.06,4.08-7.01Z"/>
        <path class="st6" d="M550.45,130.94l-.26-.26c.09.06.18.14.26.26Z"/>
        <path class="st6" d="M549.37,129.86l.82.82c-.4-.25-.79.14-.54.54l-.81-.81c.4.23.78-.15.53-.55Z"/>
        <path class="st6" d="M549.37,129.86l-.26-.26c.12.08.2.17.26.26Z"/>
        <path class="st6" d="M548.57,130.14l.26.26c-.09-.06-.18-.14-.26-.26Z"/>
        <path class="st6" d="M547.53,147.58v.99c-.27.34-.87.84-1.37.87-.27.02-.78-.18-.92-.42l.21-1.57,2.08.13Z"/>
        <path class="st6" d="M547.45,127.95l-.14-.13h0s.05,0,.14.13Z"/>
        <path class="st7" d="M544.18,135.28c1.23,1.89,2.47,7.61-.18,8.4l-16.97,5.09-.65-2.17c.72-.15,1.16-.72,1.25-1.88.04-.46,1.1-.94,1.44-1.22.56-.47.72-1.9-.57-1.97l-.78-.85c-.92-1.01-2.01-1.43-3.07-1.12l-.59-1.93.44-.13c1.42-.44,2.83-1.06,4.01-1.95,5.04-.22,8.52-4.7,13.35-2.7.1.13.21.25.34.34l.74.49c.17.12.31.26.43.43l.5.7.31.47ZM537.65,143.44c1.78-.84,2.56-4.44,1.23-5.91-.04.18-.07.36-.1.55l-2.51-.57c.41-.17.86-.31,1.33-.42-1.96-1.33-3.06-.32-4.13.87-.61.68-1.48,1.59-.47,2.59l.5.5.52.48c.19.18.44.32.52.49.28.71,1.68,2.09,3.11,1.42Z"/>
        <path d="M538.88,137.53c1.33,1.47.55,5.07-1.23,5.91-1.43.67-2.83-.71-3.11-1.42-.08-.17-.33-.31-.52-.49l-.52-.48-.5-.5c-1.01-1-.14-1.91.47-2.59,1.07-1.19,2.17-2.2,4.13-.87-.47.11-.92.25-1.33.42-1.24.5-2.18,1.29-2.76,2.54l.5.49.5.5.52.47c.68.19,2.04.38,2.8-.15.69-.48.75-1.97.95-3.28.03-.19.06-.37.1-.55Z"/>
        <path class="st6" d="M528.5,141.53c1.29.07,1.13,1.5.57,1.97-.34.28-1.4.76-1.44,1.22l-.12-3.18h.99Z"/>
        <path class="st6" d="M527.51,135.54h1c-1.18.9-2.59,1.52-4.01,1.96v-.97c.81-.81,1.9-.99,3.01-.99Z"/>
        <polygon class="st6" points="527.72 140.68 528.5 141.53 527.51 141.54 527.72 140.68"/>
        <polygon class="st7" points="527.72 140.68 527.51 141.54 527.63 144.72 527.51 144.54 524.51 144.54 523.33 144.44 523.34 144.31 523.58 140.22 527.72 140.68"/>
        <path class="st6" d="M527.72,140.68l-4.14-.46v-.05c.35-.3.71-.5,1.07-.61,1.06-.31,2.15.11,3.07,1.12Z"/>
        <path class="st6" d="M527.51,144.54l.12.18c-.09,1.16-.53,1.73-1.25,1.88-.1.02-.21.04-.32.04-.9.05-1.28-.22-1.73-1.23l.18-.87h3Z"/>
        <path class="st7" d="M526.38,146.6l.65,2.17-1.55.47h-.04v.07c-3.66.14-7.46.98-10.94,1.95l-.45-1.63c1.18-.2,1.6-.88,1.51-2.07.33-.36.89-.87.96-1.52.1-.88-.7-1.13-.92-1.58-.6-1.17-2.04-2.07-3.59-1.88l-.49-.54c-.1-.11-.12-.32-.01-.5,1.12,0,2.23-.14,3.01-.98l9.54-2.93.59,1.93c-.36.11-.72.31-1.07.61v-.09c-1.27,1.14-1.69,2.93-.24,4.23v.13h-.07c.29.25.87.56,1.06.97.45,1.01.83,1.28,1.73,1.23.11,0,.22-.02.32-.04Z"/>
        <path class="st6" d="M524.51,136.53v.97s-.45.13-.45.13l-9.54,2.93c-.26,0-.78.11-1.01,0,3.28-2.21,6.96-4.24,11-4.03Z"/>
        <path class="st6" d="M524.51,144.54l-.18.87c-.19-.41-.77-.72-1.06-.97h.06l1.18.1Z"/>
        <path class="st6" d="M523.59,140.08v.09s-.04.03-.06.04h.05s-.24,4.1-.24,4.1c-1.45-1.3-1.03-3.09.25-4.23Z"/>
        <path class="st6" d="M523.58,140.17v.05h-.05s.03-.04.05-.05Z"/>
        <path class="st6" d="M515.6,144.46c.22.45,1.02.7.92,1.58-.07.65-.63,1.16-.96,1.52l.04-3.1Z"/>
        <path class="st7" d="M515.6,144.46l-.04,3.1c-1.24.74-2.64,1.16-4.03.99l-.91-2.96c.58-.49,1.73-1.78,2.4-1.62l2.58.49Z"/>
        <path class="st6" d="M515.56,147.56c.09,1.19-.33,1.87-1.51,2.07-1.08.18-2.18.05-2.52-1.08,1.39.17,2.79-.25,4.03-.99Z"/>
        <path class="st6" d="M513.51,140.56c.23.11.75,0,1.01,0-.78.84-1.89.98-3.01.98l-1.11-.2c.82-.16,2-1.28,3.11-.78Z"/>
        <path class="st6" d="M510.62,145.59l.91,2.96c-.77-.13-1.61-.74-1.94-1.62-.29-.76.64-1.02,1.03-1.34Z"/>
        <path class="st7" d="M480.49,181.07c.7.79,1.32,2.06,1.14,3.02-.21,1.13-1.48,1.66-3.23,1.8l-1.11-1.19c-.02-2.55,1.04-3.82,2.72-4.18l.48.55Z"/>
        <path class="st6" d="M464.51,130.54c1.84,1.57.65,2.9,0,4v-4Z"/>
        <rect class="st7" x="460.51" y="130.54" width="4" height="4"/>
        <path class="st6" d="M464.51,130.54h-4c1.41-1.59,3.14-1.25,4,0Z"/>
        <path class="st7" d="M460.51,134.54h4c-.27,2-.99,2.28-2.35,1.98-.76-.17-1.23-1.29-1.65-1.98Z"/>
        <path class="st6" d="M460.51,130.54v4c-1.56-1.56-1.34-3.1,0-4Z"/>
      </g>
      <g>
        <path class="st0" d="M548.48,129.94l-2.47-2.4-1.52-.48-.51-.47c-2.14-.19-4.26.06-6.36,1.88l4.92,3.54.49.5.57.49.46.44.5.57c.2.23.4.44.64.47,2.67,3.68.77,8.68.25,12.97"/>
        <path class="st0" d="M548.5,129.97s.08.09.12.13c.1.11.19.19.28.25l-.4-.38"/>
        <line class="st0" x1="548.5" y1="129.97" x2="548.48" y2="129.94"/>
        <path class="st0" d="M547.31,127.82c.02.19.6,1.41,1.17,2.12"/>
        <path class="st0" d="M527.51,135.54l10.53-4.59c-.3-.23-1.78-2.31-1.29-3.07,1.8-2.81,5.64-2.85,8.11-2.03l.35.28,1.29.91.81.77h0s.14.14.14.14c-.09-.14-.14-.18-.14-.14"/>
        <path class="st0" d="M525.44,149.25h.04s1.55-.48,1.55-.48l16.97-5.09c2.65-.79,1.41-6.51.18-8.4l-.31-.47-.5-.7c-.12-.17-.26-.31-.43-.43l-.74-.49c-.13-.09-.24-.21-.34-.34-4.83-2-8.31,2.48-13.35,2.7"/>
        <path class="st0" d="M545.24,149.02c-1.41-2.41-3.32-2.56-6.17-2.08l-13.59,2.3"/>
        <path class="st0" d="M525.44,149.31c.29-.02.59-.03.88-.03-4.84,1.89-13.36,4.9-19.46,4.27,2.15-.63,4.78-1.5,7.64-2.29,3.48-.97,7.28-1.81,10.94-1.95Z"/>
        <path class="st0" d="M551.61,140.57c.07-2.98-.69-5.36-1.01-9.15-.01-.06-.01-.12-.02-.18,3.13,2.68,2.83,6.45,2.28,9.41"/>
        <path class="st0" d="M513.51,140.56c3.28-2.21,6.96-4.24,11-4.03"/>
        <polyline class="st0" points="524.5 137.5 524.06 137.63 514.52 140.56"/>
        <path class="st0" d="M538.78,138.08c.03-.19.06-.37.1-.55,1.33,1.47.55,5.07-1.23,5.91-1.43.67-2.83-.71-3.11-1.42-.08-.17-.33-.31-.52-.49l-.52-.48-.5-.5c-1.01-1-.14-1.91.47-2.59,1.07-1.19,2.17-2.2,4.13-.87-.47.11-.92.25-1.33.42-1.24.5-2.18,1.29-2.76,2.54l.5.49.5.5.52.47c.68.19,2.04.38,2.8-.15.69-.48.75-1.97.95-3.28Z"/>
        <path class="st0" d="M524.51,144.54h3l.12.18c-.09,1.16-.53,1.73-1.25,1.88-.1.02-.21.04-.32.04-.9.05-1.28-.22-1.73-1.23"/>
        <path class="st0" d="M528.5,141.53c1.29.07,1.13,1.5.57,1.97-.34.28-1.4.76-1.44,1.22l-.12-3.18"/>
        <path class="st0" d="M527.51,135.54h1c-1.18.9-2.59,1.52-4.01,1.96v-.97c.81-.81,1.9-.99,3.01-.99Z"/>
        <path class="st0" d="M547.53,148.57c-.27.34-.87.84-1.37.87-.27.02-.78-.18-.92-.42l.21-1.57,2.08.13"/>
        <path class="st0" d="M547.53,148.57v-.99c3.55.1,4.02-4.06,4.08-7.01l1.25.08c-.62,3.36-1.35,7.5-5.33,7.92Z"/>
        <path class="st0" d="M523.34,144.31c-1.45-1.3-1.03-3.09.25-4.23v.09s-.01.05-.01.05l-.24,4.09Z"/>
        <path class="st0" d="M524.33,145.41c-.19-.41-.77-.72-1.06-.97h.06l1.18.1-.18.87Z"/>
        <polygon class="st0" points="528.5 141.53 527.51 141.54 527.72 140.68 528.5 141.53"/>
        <path class="st0" d="M523.58,140.17c.35-.3.71-.5,1.07-.61,1.06-.31,2.15.11,3.07,1.12l-4.14-.46"/>
        <path class="st0" d="M510.4,141.34c.82-.16,2-1.28,3.11-.78.23.11.75,0,1.01,0-.78.84-1.89.98-3.01.98"/>
        <path class="st0" d="M548.83,130.4l-.26-.26c.08.12.17.2.26.26"/>
        <path class="st0" d="M550.19,130.68c-.4-.25-.79.14-.54.54.05.09.14.18.26.26l-.26-.26-.81-.81"/>
        <path class="st0" d="M550.19,130.68l.26.26c-.08-.12-.17-.2-.26-.26Z"/>
        <line class="st0" x1="549.37" y1="129.86" x2="550.19" y2="130.68"/>
        <path class="st0" d="M549.37,129.86c-.06-.09-.14-.18-.26-.26l.26.26Z"/>
        <path class="st0" d="M548.84,130.41c.4.23.78-.15.53-.55"/>
        <path class="st0" d="M548.84,130.41h-.01"/>
        <path class="st0" d="M515.56,147.56l.04-3.1c.22.45,1.02.7.92,1.58-.07.65-.63,1.16-.96,1.52Z"/>
        <path class="st0" d="M487.83,187.77l-2.25-6.49-9.69-27.97c.1-.16-.06-.49.24-.68l-.14-.43-11.91-36.9c-4.71,1.07-8.22,2.31-12.07,4.21l21.89,65.02,4.43,13.16c4.65-.08,8.85-1.42,11.78-5.01.69.54.63,2.17-.01,2.82-.43.43-1.23,1.25-2.21,1.44l-13.64,2.7-3.99-10.57-7.66-22.5-14.17-41.8c-.42-1.23-1.28-1.92-2.19-2.3,5.05-4.79,12.16-6.96,18.91-9.26l2.93,10.81,6.64,19.37c1.74,5.1,8.57,6.06,13.66,4.88,2.4-.56,4.02-1.69,6.11-1.91,5.01-.53,8.3-3.56,15.91-5.02l1.11.2c-.11.18-.09.39.01.5l.49.54c1.55-.19,2.99.71,3.59,1.88l-2.58-.49c-.67-.16-1.82,1.13-2.4,1.62l.87-2.55-.51-.58-19.79,6.78c-5.1,1.75-9.8,1.82-14.43-1.33-.72,2.13-.28,3.14-.23,4.12.24.14.45.37.53.52l4.88,13.56c2.33-6.55,8.19-10.08,15.41-10.82,3.11-.31,6.06-2.39,9.47-1.56.28.06.56.15.85.26-4.29,2.07-8.8,2.59-13.24,3.48-3.48.71-6.52,1.9-8.54,4.2-3.03,3.44-2.99,7.09-1.74,11.22l3.74,14.91"/>
        <path class="st0" d="M511.53,148.55c-.77-.13-1.61-.74-1.94-1.62-.29-.76.64-1.02,1.03-1.34l.91,2.96Z"/>
        <path class="st0" d="M511.53,148.55c1.39.17,2.79-.25,4.03-.99.09,1.19-.33,1.87-1.51,2.07-1.08.18-2.18.05-2.52-1.08Z"/>
        <path class="st0" d="M478.4,185.89c1.75-.14,3.02-.67,3.23-1.8.18-.96-.44-2.23-1.14-3.02l-.48-.55c-1.68.36-2.74,1.63-2.72,4.18-.4-.35-.64-.7-.76-1.05-.35-.97.21-1.92.67-2.85.7-1.41,1.87-1.72,3.3-.74.2.13.37.31.51.5,1.2.09,2.03.68,2.37,1.48.3.72.21,1.61-.36,2.49-1.05,1.62-2.83,2.94-4.62,1.36Z"/>
        <path class="st0" d="M460.51,134.54c-1.56-1.56-1.34-3.1,0-4v4Z"/>
        <path class="st0" d="M464.51,134.54v-4c1.84,1.57.65,2.9,0,4Z"/>
        <path class="st0" d="M464.51,130.54h-4c1.41-1.59,3.14-1.25,4,0Z"/>
        <path class="st0" d="M464.51,134.54c-.27,2-.99,2.28-2.35,1.98-.76-.17-1.23-1.29-1.65-1.98h4Z"/>
        <path class="st0" d="M487.89,187.8c.51.33,1.95,2.75,1.76,3.8.13.43.09.61-.04.61-.5,0-2.35-2.56-1.88-4.17-.04-.24,0-.32.1-.27.02-.01.04,0,.06.03Z"/>
      </g>
    </g>
    <polygon class="st3" points="332.63 63.07 370.6 63.01 341.08 174.06 311.09 174.11 296.27 131.53 284.38 174.1 255.5 174.05 221.19 63.18 262.12 63.16 272.62 96.55 283.2 63.1 310.97 63.06 320.92 96.86 332.63 63.07"/>
    <path class="st3" d="M446,123.02c.91.38,1.77,1.07,2.19,2.3l14.18,41.8c-25.16,12.92-62.11,11.85-77.17-13.93-6.6-11.29-7.95-24.02-7.31-37.05.51-10.31,1.67-20.05,6.2-29.21,10.43-21.1,30.77-26.75,53.62-24.36,10.17,1.07,20.09,3.42,27.94,10.35l-16.76,38.41c-7.84-3.67-16.62-4.44-24.76-1.4-4.1,1.53-5.61,5.6-4.71,9.52,1.83,7.92,16.23,6.6,26.58,3.58Z"/>
    <g>
      <path class="st3" d="M178.3,156.17l-30.24-.18c-2.37,5.9-3.78,11.79-5.79,18.12l-39.7-.05,31.69-111.05,55.4-.13,31.88,111.21-39.18.03-4.06-17.94ZM167.78,128.2l-6.36-24.8-6.63,25.18c4.55.45,8.65.97,12.99-.38Z"/>
      <path class="st5" d="M167.78,128.2c-4.35,1.35-8.44.83-12.99.38l6.63-25.18,6.36,24.8Z"/>
    </g>
  </g>
</svg>